<svg viewBox="0 0 24 24" fill="none" xmlns="http://www.w3.org/2000/svg">
  <path d="M21 15C21 16.6569 19.6569 18 18 18H7.91421C7.42286 18 7.17714 18 6.94537 17.9077C6.74104 17.8286 6.55837 17.6976 6.40828 17.5243C6.23075 17.3197 6.09635 17.0428 5.82755 16.489L4.08579 12.9142C3.59444 11.9116 3.34872 11.409 3.25639 10.9176C3.17729 10.4939 3.17729 10.0461 3.25639 9.6224C3.34872 9.131 3.59444 8.62838 4.08579 7.62583L5.82755 4.05103C6.09635 3.49723 6.23075 3.2203 6.40828 3.0157C6.55837 2.84242 6.74104 2.71135 6.94537 2.63229C7.17714 2.54 7.42286 2.54 7.91421 2.54H18C19.6569 2.54 21 3.8831 21 5.54V15Z" stroke="#4CAF50" stroke-width="2" stroke-linecap="round" stroke-linejoin="round"/>
  <path d="M8 9H16" stroke="#4CAF50" stroke-width="2" stroke-linecap="round" stroke-linejoin="round"/>
  <path d="M8 13H14" stroke="#4CAF50" stroke-width="2" stroke-linecap="round" stroke-linejoin="round"/>
 </svg>